<svg width="128" height="128" viewBox="0 0 128 128" fill="none" xmlns="http://www.w3.org/2000/svg">
<path fill-rule="evenodd" clip-rule="evenodd" d="M100.126 12.6413V7.72063H110V120.281H100.126V115.359L78.4229 128L68.5909 122.272L100.027 103.96L75.5647 89.7084L44.1284 108.021L34.2964 102.294L100.027 64.0019L75.5628 49.7488L51.1004 64L65.7327 72.5237L55.8987 78.2512L41.2683 69.7276L9.83204 88.0423L0 82.3147L100.027 24.0423L68.5928 5.72952L78.4249 0L100.126 12.6413ZM85.3987 83.9788L100.126 92.5586V75.401L85.3987 83.9788ZM85.3948 44.0212L100.126 52.6009V35.4414L85.3948 44.0212Z" fill="black"/>
<path d="M31.4344 52.5429L21.6023 58.2705L0.00192861 45.6872L9.83396 39.9596L31.4344 52.5429Z" fill="black"/>
<path d="M65.7308 32.5641L55.8968 38.2936L34.2964 25.7084L44.1304 19.9808L65.7308 32.5641Z" fill="black"/>
</svg>
